<svg xmlns="http://www.w3.org/2000/svg" width="15" height="12" viewBox="0 0 15 12">
  <g fill="none" fill-rule="evenodd" transform="translate(-4 -6)">
    <rect width="24" height="24" fill="#FFF" opacity="0"/>
    <path fill="#6979F8" fill-rule="nonzero" d="M6.49116303,6.43746866 C5.93481197,5.86544574 5.02008412,5.85274119 4.4480612,6.40909224 C3.87603828,6.9654433 3.86333373,7.88017115 4.41968479,8.45219407 L7.73972525,11.7012935 L4.41968479,14.9503929 C4.15108408,15.2168001 4,15.5794448 4,15.9577556 C4,16.3360665 4.15108408,16.6987112 4.41968479,16.9651183 C4.68609193,17.233719 5.04873664,17.3848031 5.42704749,17.3848031 C5.80535835,17.3848031 6.16800306,17.233719 6.4344102,16.9651183 L10.6908723,12.7086562 C10.959473,12.4422491 11.1105571,12.0796044 11.1105571,11.7012935 C11.1105571,11.3229826 10.959473,10.9603379 10.6908723,10.6939308 L6.49116303,6.43746866 Z M18.5511391,10.6939308 L14.2946769,6.43746866 C13.7383259,5.88111761 12.8363026,5.88111762 12.2799515,6.43746867 C11.7236005,6.99381973 11.7236005,7.89584301 12.2799515,8.45219407 L15.5432392,11.7012935 L12.2799515,14.9503929 C12.0113508,15.2168001 11.8602667,15.5794448 11.8602667,15.9577556 C11.8602667,16.3360665 12.0113508,16.6987112 12.2799515,16.9651183 C12.5463587,17.233719 12.9090034,17.3848031 13.2873142,17.3848031 C13.6656251,17.3848031 14.0282698,17.233719 14.2946769,16.9651183 L18.5511391,12.7086562 C18.8273818,12.4498938 18.9887788,12.0914798 18.9994367,11.7131223 C19.0100947,11.3347647 18.86913,10.9678335 18.6078919,10.6939308 L18.5511391,10.6939308 Z" transform="matrix(-1 0 0 1 23 0)"/>
  </g>
</svg>
