<svg xmlns="http://www.w3.org/2000/svg" width="22" height="28" viewBox="0 0 22 28">
  <g fill="none" fill-rule="evenodd" transform="translate(-5 -2)">
    <rect width="32" height="32" fill="#FFF" opacity="0"/>
    <path fill="#344563" fill-rule="nonzero" d="M6.66666667,10.6666667 L8,10.6666667 C8.73637967,10.6666667 9.33333333,10.069713 9.33333333,9.33333333 C9.33333333,8.59695367 8.73637967,8 8,8 L6.66666667,8 C5.930287,8 5.33333333,8.59695367 5.33333333,9.33333333 C5.33333333,10.069713 5.930287,10.6666667 6.66666667,10.6666667 Z M6.66666667,13.3333333 C5.930287,13.3333333 5.33333333,13.930287 5.33333333,14.6666667 C5.33333333,15.4030463 5.930287,16 6.66666667,16 L14.6666667,16 C15.4030463,16 16,15.4030463 16,14.6666667 C16,13.930287 15.4030463,13.3333333 14.6666667,13.3333333 L6.66666667,13.3333333 Z M21.3333333,9.25333333 C21.3194449,9.13084653 21.2926289,9.01017411 21.2533333,8.89333333 L21.2533333,8.77333333 C21.1892252,8.63623967 21.1037117,8.51021978 21,8.4 L21,8.4 L13,0.4 L13,0.4 C12.8897802,0.296288274 12.7637603,0.210774775 12.6266667,0.146666667 C12.5868664,0.141013579 12.5464669,0.141013579 12.5066667,0.146666667 C12.3712197,0.0689884728 12.2216311,0.019125605 12.0666667,0 L4,0 C1.790861,-2.96059473e-16 0,1.790861 0,4 L0,22.6666667 C0,24.8758057 1.790861,26.6666667 4,26.6666667 L17.3333333,26.6666667 C19.5424723,26.6666667 21.3333333,24.8758057 21.3333333,22.6666667 L21.3333333,9.33333333 C21.3333333,9.33333333 21.3333333,9.33333333 21.3333333,9.25333333 Z M13.3333333,4.54666667 L16.7866667,8 L14.6666667,8 C13.930287,8 13.3333333,7.40304633 13.3333333,6.66666667 L13.3333333,4.54666667 Z M18.6666667,22.6666667 C18.6666667,23.4030463 18.069713,24 17.3333333,24 L4,24 C3.26362033,24 2.66666667,23.4030463 2.66666667,22.6666667 L2.66666667,4 C2.66666667,3.26362033 3.26362033,2.66666667 4,2.66666667 L10.6666667,2.66666667 L10.6666667,6.66666667 C10.6666667,8.87580567 12.4575277,10.6666667 14.6666667,10.6666667 L18.6666667,10.6666667 L18.6666667,22.6666667 Z M14.6666667,18.6666667 L6.66666667,18.6666667 C5.930287,18.6666667 5.33333333,19.2636203 5.33333333,20 C5.33333333,20.7363797 5.930287,21.3333333 6.66666667,21.3333333 L14.6666667,21.3333333 C15.4030463,21.3333333 16,20.7363797 16,20 C16,19.2636203 15.4030463,18.6666667 14.6666667,18.6666667 Z" transform="translate(5.333 2.667)"/>
  </g>
</svg>
