<svg xmlns="http://www.w3.org/2000/svg" width="18" height="18" viewBox="0 0 18 18">
  <g fill="none" fill-rule="evenodd" transform="translate(-3 -3)">
    <rect width="24" height="24" fill="#FFF" opacity="0"/>
    <path fill="#344563" fill-rule="nonzero" d="M17.775,8.7 L16.95,8.7 L16.95,6.225 C16.95,4.85809524 15.8419048,3.75 14.475,3.75 L6.225,3.75 C4.85809524,3.75 3.75,4.85809524 3.75,6.225 L3.75,16.125 C3.75166249,16.4580541 3.95342396,16.757442 4.2615,16.884 C4.35941049,16.9301846 4.46677936,16.9527886 4.575,16.95 C4.79428746,16.9512678 5.00505696,16.8651789 5.16075,16.71075 L7.479,14.38425 L8.7,14.38425 L8.7,15.57225 C8.7,16.9391548 9.80809524,18.04725 11.175,18.04725 L16.884,18.04725 L18.83925,20.01075 C18.994943,20.1651789 19.2057125,20.2512678 19.425,20.25 C19.5332206,20.2527886 19.6405895,20.2301846 19.7385,20.184 C20.046576,20.057442 20.2483375,19.7580541 20.25,19.425 L20.25,11.175 C20.25,9.80809524 19.1419048,8.7 17.775,8.7 Z M8.7,11.175 L8.7,12.73425 L7.14075,12.73425 C6.92146254,12.7329822 6.71069304,12.8190711 6.555,12.9735 L5.4,14.13675 L5.4,6.225 C5.4,5.76936508 5.76936508,5.4 6.225,5.4 L14.475,5.4 C14.9306349,5.4 15.3,5.76936508 15.3,6.225 L15.3,8.7 L11.175,8.7 C9.80809524,8.7 8.7,9.80809524 8.7,11.175 Z M18.6,17.43675 L17.775,16.61175 C17.6206661,16.4542941 17.4097279,16.3651653 17.18925,16.36425 L11.175,16.36425 C10.7193651,16.36425 10.35,15.9948849 10.35,15.53925 L10.35,11.175 C10.35,10.7193651 10.7193651,10.35 11.175,10.35 L17.775,10.35 C18.2306349,10.35 18.6,10.7193651 18.6,11.175 L18.6,17.43675 Z"/>
  </g>
</svg>
