<svg xmlns="http://www.w3.org/2000/svg" width="12" height="20" viewBox="0 0 12 20">
  <g fill="none" fill-rule="evenodd" transform="translate(-6 -1.8)">
    <rect width="24" height="23.04" fill="#FFF" opacity="0"/>
    <path fill="#344563" fill-rule="nonzero" d="M7.42214674,11.5982586 L10.5995988,11.5982586 C11.0056084,11.5982586 11.2943541,11.9773467 11.1712506,12.3487678 L9.35268213,17.8356487 L16.1502169,9.67860691 L12.599236,9.67860691 C12.1722424,9.67860691 11.8819521,9.26247771 12.0445298,8.88343929 L14.5029574,3.15179104 L10.2376359,3.15179104 L7.42214674,11.5982586 Z M6.6003244,12.7500497 C6.19389977,12.7500497 5.90510521,12.3702402 6.02897357,11.9986352 L9.22839312,2.40037654 C9.30790121,2.16185221 9.53886979,2 9.79974394,2 L15.3987281,2 C15.8257218,2 16.1160121,2.4161292 15.9534343,2.79516762 L13.4950068,8.52681587 L17.3983654,8.52681587 C17.9013778,8.52681587 18.181031,9.08539521 17.8668017,9.46247048 L8.26854302,20.9803808 C7.85301141,21.4790187 7.02677143,21.0545161 7.22845496,20.4460081 L9.77919879,12.7500497 L6.6003244,12.7500497 Z"/>
  </g>
</svg>
